<svg width="32" height="32" viewBox="0 0 32 32" xmlns="http://www.w3.org/2000/svg">
  <defs>
    <linearGradient id="grad1" x1="0%" y1="0%" x2="100%" y2="100%">
      <stop offset="0%" style="stop-color:#6842FF;stop-opacity:1" />
      <stop offset="100%" style="stop-color:#5935D6;stop-opacity:1" />
    </linearGradient>
    <linearGradient id="grad2" x1="0%" y1="0%" x2="100%" y2="100%">
      <stop offset="0%" style="stop-color:#4AF0A7;stop-opacity:1" />
      <stop offset="100%" style="stop-color:#2dd4bf;stop-opacity:1" />
    </linearGradient>
  </defs>
  
  <!-- Background circle -->
  <circle cx="16" cy="16" r="15" fill="url(#grad1)" stroke="#2A2C41" stroke-width="2"/>
  
  <!-- Gaming controller shape -->
  <path d="M8 14c-1.1 0-2 .9-2 2v2c0 1.1.9 2 2 2h2v-2h-1v-2h1v-2H8z" fill="url(#grad2)"/>
  <path d="M24 14c1.1 0 2 .9 2 2v2c0 1.1-.9 2-2 2h-2v-2h1v-2h-1v-2h2z" fill="url(#grad2)"/>
  
  <!-- Center gaming elements -->
  <rect x="12" y="12" width="8" height="8" rx="2" fill="#F9FAFF" opacity="0.9"/>
  <circle cx="14" cy="14" r="1" fill="#6842FF"/>
  <circle cx="18" cy="14" r="1" fill="#6842FF"/>
  <circle cx="14" cy="18" r="1" fill="#6842FF"/>
  <circle cx="18" cy="18" r="1" fill="#6842FF"/>
  
  <!-- K letter in center -->
  <text x="16" y="18" font-family="Arial, sans-serif" font-size="8" font-weight="bold" text-anchor="middle" fill="#6842FF">K</text>
</svg>